<svg width="1600" height="1200" viewBox="0 0 1600 1200" fill="none" xmlns="http://www.w3.org/2000/svg">
<g clip-path="url(#clip0_25_374)">
<path d="M800 800.69C800 911.146 710.456 1000.69 600 1000.69V800.69H800Z" fill="#FF743C"/>
<path d="M600 1200.69C489.544 1200.69 400 1111.15 400 1000.69H600V1200.69Z" fill="#FF743C"/>
<path d="M1000 1000.69C1000 1111.15 910.456 1200.69 800 1200.69V1000.69H1000Z" fill="#F0F1F1"/>
<path d="M0 1000.69C0 890.234 89.543 800.69 200 800.69V1000.69H0Z" fill="#FF743C"/>
<path d="M1400 400C1289.54 400 1200 310.456 1200 200H1400V400Z" fill="#FFC700"/>
<path d="M1400 800.69C1289.54 800.69 1200 711.146 1200 600.69H1400V800.69Z" fill="#2D3652"/>
<path d="M1000 400.69C1110.46 400.69 1200 490.234 1200 600.69H1000V400.69Z" fill="#D5E155"/>
<path d="M600 0C600 110.456 510.456 200 400 200V0L600 0Z" fill="#FF743C"/>
<path d="M600 1000.69C489.542 1000.69 400 911.146 400 800.69H600V1000.69Z" fill="#2D3652"/>
<path d="M600 902.759C543.628 902.759 497.931 857.062 497.931 800.69H600V902.759Z" fill="#6ED47C"/>
<path d="M200 1200.69C89.543 1200.69 0 1111.15 0 1000.69H200V1200.69Z" fill="#D5E155"/>
<path d="M200 1102.76C143.629 1102.76 97.931 1057.06 97.931 1000.69H200V1102.76Z" fill="#2D3652"/>
<path d="M800 1200.69C689.542 1200.69 600 1111.15 600 1000.69H800V1200.69Z" fill="#6ED47C"/>
<path d="M800 1102.76C743.628 1102.76 697.931 1057.06 697.931 1000.69H800V1102.76Z" fill="#D5E155"/>
<path d="M200 400.69V500.69C200 555.918 155.228 600.69 100 600.69V500.69C100 445.462 144.772 400.69 200 400.69Z" fill="#D5E155"/>
<path d="M300 600.69V500.69C300 445.462 255.228 400.69 200 400.69V500.69C200 555.918 244.772 600.69 300 600.69Z" fill="#2D3652"/>
<path d="M1397 82H1297C1241.77 82 1197 126.772 1197 182H1297C1352.23 182 1397 137.228 1397 82Z" fill="#2D3652"/>
<path d="M100 500.69V600.69C100 655.918 55.2284 700.69 0 700.69V600.69C0 545.462 44.7716 500.69 100 500.69Z" fill="#6ED47C"/>
<path d="M1597 101H1497C1441.77 101 1397 145.772 1397 201H1497C1552.23 201 1597 156.228 1597 101Z" fill="#FFC700"/>
<path d="M1597 101H1497C1441.77 101 1397 56.2284 1397 1H1497C1552.23 1 1597 45.7716 1597 101Z" fill="#FF743C"/>
<path d="M600 500H700C755.228 500 800 455.228 800 400H700C644.772 400 600 444.772 600 500Z" fill="#2D3652"/>
<path d="M500 600H600C655.228 600 700 555.228 700 500H600C544.772 500 500 544.772 500 600Z" fill="#6ED47C"/>
<path d="M600 0V200C600 310.456 689.544 400 800 400V200C800 89.544 710.456 0 600 0Z" fill="#FF743C"/>
<path d="M700 200.69V299.841C700 355.157 744.772 400 800 400V300.849C800 245.531 755.228 200.69 700 200.69Z" fill="#2D3652"/>
<path d="M0 400.69V200.345C0 89.6984 89.543 0 200 0V200.345C200 310.991 110.457 400.69 0 400.69Z" fill="#2D3652"/>
<path d="M100 199.31V100.159C100 44.8433 144.772 0 200 0V99.1515C200 154.469 155.228 199.31 100 199.31Z" fill="#6ED47C"/>
<path d="M400 1200.69V1000.69C400 890.234 310.456 800.69 200 800.69L200 1000.69C200 1111.15 289.544 1200.69 400 1200.69Z" fill="#F0F1F1"/>
<path d="M300 1000V900.849C300 845.533 255.228 800.69 200 800.69L200 899.841C200 955.159 244.772 1000 300 1000Z" fill="#FFC700"/>
<path d="M400 0V200C400 310.456 310.456 400 200 400V200C200 89.544 289.544 0 400 0Z" fill="#F0F1F1"/>
<path d="M300 201.379V300.531C300 355.847 255.228 400.69 200 400.69V301.538C200 246.221 244.772 201.379 300 201.379Z" fill="#D5E155"/>
<path d="M1200 200H1000C889.544 200 800 289.544 800 400H1000C1110.46 400 1200 310.456 1200 200Z" fill="#2D3652"/>
<path d="M1000 300H900.506C844.998 300 800 344.772 800 400H899.494C955.004 400 1000 355.228 1000 300Z" fill="#F0F1F1"/>
<path d="M1200 600.69H1000C889.544 600.69 800 690.234 800 800.69H1000C1110.46 800.69 1200 711.146 1200 600.69Z" fill="#F0F1F1"/>
<path d="M999.31 700.69H900.159C844.843 700.69 800 745.462 800 800.69H899.151C954.469 800.69 999.31 755.918 999.31 700.69Z" fill="#2D3652"/>
<path d="M600 600.69H400C289.544 600.69 200 690.234 200 800.69H400C510.456 800.69 600 711.146 600 600.69Z" fill="#F0F1F1"/>
<path d="M399.31 700.69H300.159C244.843 700.69 200 745.462 200 800.69H299.151C354.469 800.69 399.31 755.918 399.31 700.69Z" fill="#FF743C"/>
<path d="M800 800.69H1000C1110.46 800.69 1200 890.234 1200 1000.69H1000C889.544 1000.69 800 911.146 800 800.69Z" fill="#2D3652"/>
<path d="M1000 900.69H1099.49C1155 900.69 1200 945.462 1200 1000.69H1100.51C1045 1000.69 1000 955.918 1000 900.69Z" fill="#6ED47C"/>
<path d="M1200 1200.69V1000.69C1200 890.234 1289.54 800.69 1400 800.69V1000.69C1400 1111.15 1310.46 1200.69 1200 1200.69Z" fill="#6ED47C"/>
<path d="M1300 1000V900.848C1300 845.532 1344.77 800.69 1400 800.69V899.842C1400 955.157 1355.23 1000 1300 1000Z" fill="#2D3652"/>
<path d="M1140.69 800C1140.69 766.862 1167.55 740 1200.69 740C1233.83 740 1260.69 766.862 1260.69 800C1260.69 833.138 1233.83 860 1200.69 860C1167.55 860 1140.69 833.138 1140.69 800Z" fill="#FF743C"/>
<path d="M1171.03 800.345C1171.03 783.777 1184.47 770.345 1201.03 770.345C1217.6 770.345 1231.03 783.777 1231.03 800.345C1231.03 816.913 1217.6 830.345 1201.03 830.345C1184.47 830.345 1171.03 816.913 1171.03 800.345Z" fill="#FFC700"/>
<path d="M719.31 547.241C719.31 530.673 732.742 517.241 749.31 517.241C765.878 517.241 779.31 530.673 779.31 547.241C779.31 563.809 765.878 577.241 749.31 577.241C732.742 577.241 719.31 563.809 719.31 547.241Z" fill="#FF743C"/>
<path d="M519.31 450.69C519.31 434.122 532.742 420.69 549.31 420.69C565.878 420.69 579.31 434.122 579.31 450.69C579.31 467.258 565.878 480.69 549.31 480.69C532.742 480.69 519.31 467.258 519.31 450.69Z" fill="#6ED47C"/>
<path d="M1222.07 51.3794C1222.07 34.8114 1235.5 21.3794 1252.07 21.3794C1268.64 21.3794 1282.07 34.8114 1282.07 51.3794C1282.07 67.9474 1268.64 81.3794 1252.07 81.3794C1235.5 81.3794 1222.07 67.9474 1222.07 51.3794Z" fill="#6ED47C"/>
<path d="M1318.62 51.3794C1318.62 34.8114 1332.05 21.3794 1348.62 21.3794C1365.19 21.3794 1378.62 34.8114 1378.62 51.3794C1378.62 67.9474 1365.19 81.3794 1348.62 81.3794C1332.05 81.3794 1318.62 67.9474 1318.62 51.3794Z" fill="#D5E155"/>
<path d="M174.483 745.172C174.483 761.74 161.051 775.172 144.483 775.172C127.914 775.172 114.483 761.74 114.483 745.172C114.483 728.604 127.914 715.172 144.483 715.172C161.051 715.172 174.483 728.604 174.483 745.172Z" fill="#FF743C"/>
<path d="M80 745.172C80 761.74 66.5686 775.172 50 775.172C33.4314 775.172 20 761.74 20 745.172C20 728.604 33.4314 715.172 50 715.172C66.5686 715.172 80 728.604 80 745.172Z" fill="#2D3652"/>
<path d="M174.483 650.69C174.483 667.258 161.051 680.69 144.483 680.69C127.914 680.69 114.483 667.258 114.483 650.69C114.483 634.122 127.914 620.69 144.483 620.69C161.051 620.69 174.483 634.122 174.483 650.69Z" fill="#6ED47C"/>
<path d="M1162.07 389.31C1162.07 372.742 1175.5 359.31 1192.07 359.31C1208.64 359.31 1222.07 372.742 1222.07 389.31C1222.07 405.878 1208.64 419.31 1192.07 419.31C1175.5 419.31 1162.07 405.878 1162.07 389.31Z" fill="#FF743C"/>
<path d="M773.103 949.655C773.103 934.8 785.145 922.759 800 922.759C814.855 922.759 826.897 934.8 826.897 949.655C826.897 964.51 814.855 976.552 800 976.552C785.145 976.552 773.103 964.51 773.103 949.655Z" fill="#FF743C"/>
<path d="M23.4482 450.345C23.4482 435.49 35.4903 423.448 50.3448 423.448C65.1993 423.448 77.2413 435.49 77.2413 450.345C77.2413 465.2 65.1993 477.241 50.3448 477.241C35.4903 477.241 23.4482 465.2 23.4482 450.345Z" fill="#FF743C"/>
<path d="M800 500C800 444.772 844.772 400 900 400C955.228 400 1000 444.772 1000 500C1000 555.228 955.228 600 900 600H800V500Z" fill="#FF743C"/>
<path d="M800 548.965C800 520.399 823.158 497.241 851.725 497.241C880.291 497.241 903.448 520.399 903.448 548.965C903.448 577.532 880.291 600.69 851.725 600.69H800V548.965Z" fill="#FFC700"/>
<path d="M1400 500C1400 444.772 1355.23 400 1300 400C1244.77 400 1200 444.772 1200 500C1200 555.228 1244.77 600 1300 600H1400V500Z" fill="#FF743C"/>
<path d="M1400 548.275C1400 519.709 1376.84 496.552 1348.27 496.552C1319.71 496.552 1296.55 519.709 1296.55 548.275C1296.55 576.842 1319.71 600 1348.27 600H1400V548.275Z" fill="#FFC700"/>
<path d="M1200 100C1200 44.772 1155.23 0 1100 0C1044.77 0 1000 44.772 1000 100C1000 155.228 1044.77 200 1100 200H1200V100Z" fill="#D5E155"/>
<path d="M1200 148.275C1200 119.709 1176.84 96.5518 1148.27 96.5518C1119.71 96.5518 1096.55 119.709 1096.55 148.275C1096.55 176.842 1119.71 200 1148.27 200H1200V148.275Z" fill="#FF743C"/>
<path d="M800 100C800 155.228 844.772 200 900 200C955.228 200 1000 155.228 1000 100C1000 44.772 955.228 0 900 0H800V100Z" fill="#6ED47C"/>
<path d="M800 51.7251C800 80.2906 823.158 103.448 851.725 103.448C880.291 103.448 903.448 80.2906 903.448 51.7251C903.448 23.1576 880.291 0 851.725 0H800V51.7251Z" fill="#2D3652"/>
<path d="M400 300C400 244.772 444.772 200 500 200C555.228 200 600 244.772 600 300C600 355.228 555.228 400 500 400C444.772 400 400 355.228 400 300Z" fill="#FFC700"/>
<path d="M444.828 300.345C444.828 269.684 469.684 244.828 500.345 244.828C531.005 244.828 555.862 269.684 555.862 300.345C555.862 331.005 531.005 355.862 500.345 355.862C469.684 355.862 444.828 331.005 444.828 300.345Z" fill="#2D3652"/>
<path d="M1000 1100.69C1000 1045.46 1044.77 1000.69 1100 1000.69C1155.23 1000.69 1200 1045.46 1200 1100.69C1200 1155.92 1155.23 1200.69 1100 1200.69C1044.77 1200.69 1000 1155.92 1000 1100.69Z" fill="#FF743C"/>
<path d="M1044.83 1099.66C1044.83 1068.99 1069.68 1044.14 1100.34 1044.14C1131.01 1044.14 1155.86 1068.99 1155.86 1099.66C1155.86 1130.32 1131.01 1155.17 1100.34 1155.17C1069.68 1155.17 1044.83 1130.32 1044.83 1099.66Z" fill="#2D3652"/>
<path d="M800 700.69C800 755.918 755.382 800.69 700.345 800.69C645.307 800.69 600.69 755.918 600.69 700.69C600.69 645.462 645.307 600.69 700.345 600.69H800V700.69Z" fill="#D5E155"/>
<path d="M400 600.69C455.228 600.69 500 555.918 500 500.69C500 445.462 455.228 400.69 400 400.69C344.772 400.69 300 445.462 300 500.69V600.69H400Z" fill="#FF743C"/>
<path d="M1399.31 400C1399.31 289.544 1488.85 200 1599.31 200V400H1399.31Z" fill="#FF743C"/>
<path d="M1599.31 800C1488.85 800 1399.31 710.456 1399.31 600H1599.31V800Z" fill="#F0F1F1"/>
<path d="M1399.31 600C1399.31 489.542 1488.85 400 1599.31 400V600H1399.31Z" fill="#6ED47C"/>
<path d="M1497.24 600C1497.24 543.628 1542.94 497.931 1599.31 497.931V600H1497.24Z" fill="#D5E155"/>
<path d="M1400 1101C1400 1156.23 1444.77 1201 1500 1201C1555.23 1201 1600 1156.23 1600 1101C1600 1045.77 1555.23 1001 1500 1001H1400V1101Z" fill="#FFC700"/>
<path d="M1400 1052.73C1400 1081.29 1423.16 1104.45 1451.73 1104.45C1480.29 1104.45 1503.45 1081.29 1503.45 1052.73C1503.45 1024.16 1480.29 1001 1451.73 1001H1400V1052.73Z" fill="#FFC700"/>
<path d="M1499.31 800C1554.54 800 1599.31 844.772 1599.31 900C1599.31 955.228 1554.54 1000 1499.31 1000C1444.08 1000 1399.31 955.228 1399.31 900C1399.31 844.772 1444.08 800 1499.31 800Z" fill="#FF743C"/>
<path d="M1500.34 844.828C1531.01 844.828 1555.86 869.684 1555.86 900.345C1555.86 931.005 1531.01 955.862 1500.34 955.862C1469.68 955.862 1444.83 931.005 1444.83 900.345C1444.83 869.684 1469.68 844.828 1500.34 844.828Z" fill="#2D3652"/>
</g>
<defs>
<clipPath id="clip0_25_374">
<rect width="1600" height="1200" fill="white"/>
</clipPath>
</defs>
</svg>
