<svg width="480" height="480" viewBox="0 0 480 480" fill="none" xmlns="http://www.w3.org/2000/svg">
<rect width="480" height="480" fill="#023047"/>
<path d="M345.933 264.217C345.933 345.429 278.876 411.416 195.967 411.416C113.057 411.416 46 345.429 46 264.217C46 183.006 113.057 117.018 195.967 117.018C278.876 117.018 345.933 183.006 345.933 264.217Z" fill="#F07167" stroke="#FED9B7" stroke-width="10"/>
<path d="M192.037 97.441C175.673 111.589 109.807 212.769 107.352 216.628L124.943 331.099C124.943 331.099 235.402 344.39 247.675 345.676C259.948 346.962 292.677 316.094 314.768 286.082C332.442 262.074 334.782 205.91 334.782 205.91L402.726 225.203C390.726 215.199 365.089 195.62 358.952 188.332C350.479 178.268 340.951 162.608 340.951 162.608C341.36 151.89 360.588 137.313 368.77 130.882C376.953 124.451 390.862 118.449 396.181 116.734C400.435 115.362 427.273 111.017 433 110.732C429.182 107.159 412.054 100.957 405.181 99.5846C378.18 91.4388 360.179 98.4414 351.588 99.5846C336.451 87.1514 315.505 64 275.903 64C226.402 64 208.401 83.2929 192.037 97.441Z" stroke="#FED9B7" stroke-width="10" stroke-linejoin="round"/>
<ellipse cx="309.9" cy="117.163" rx="8.73051" ry="12.8619" fill="#FED9B7"/>
</svg>
